<svg width="12" height="8" viewBox="0 0 12 8" fill="none" xmlns="http://www.w3.org/2000/svg">
<path d="M7.131 6.89803C7.189 6.85756 7.437 6.70475 7.641 6.5624C8.924 5.72789 11.024 3.55089 11.665 2.41145C11.768 2.2384 11.986 1.80091 12 1.56716C12 1.34318 11.928 1.12967 11.782 0.925924C11.578 0.67194 11.257 0.468195 10.878 0.356554C10.615 0.284685 9.828 0.173044 9.814 0.173044C8.953 0.0614026 7.554 0 6.008 0C4.535 0 3.193 0.0614026 2.319 0.152809C2.305 0.163275 1.327 0.274916 0.992 0.397024C0.38 0.621004 0 1.0585 0 1.52669L0 1.56716C0.015 1.87208 0.395 2.51332 0.409 2.51332C1.051 3.59136 3.048 5.71812 4.375 6.57287C4.375 6.57287 4.716 6.8136 4.929 6.91826C5.235 7.08154 5.614 7.16248 5.993 7.16248C6.416 7.16248 6.81 7.07107 7.131 6.89803Z" fill="#572148"/>
</svg>
