<svg width="14" height="14" viewBox="0 0 14 14" fill="none" xmlns="http://www.w3.org/2000/svg">
<g opacity="0.75">
<path fill-rule="evenodd" clip-rule="evenodd" d="M3.84935 4.27767H2.7818L2.72764 4.60263C2.55662 5.62876 2.7987 6.34823 3.25302 6.80682C3.57015 7.12694 3.96059 7.28888 4.30396 7.35367L4.63556 11.6666H3.88884V12.4443H10.1111V11.6666H9.36436L9.69558 7.36265C9.99452 7.31766 10.2533 7.21565 10.4719 7.06473C10.7726 6.85719 10.9721 6.57469 11.1 6.27952C11.3504 5.70173 11.3449 5.03616 11.2726 4.60263L11.2185 4.27767H4.62854C4.60362 3.89644 4.61958 3.44503 4.72136 3.06604C4.78786 2.81843 4.88303 2.63202 4.99873 2.5121C5.10415 2.40284 5.24009 2.33323 5.44439 2.33323V1.55545C5.02648 1.55545 4.68926 1.71269 4.43901 1.97206C4.19904 2.22078 4.05602 2.54478 3.9702 2.8643C3.84583 3.32738 3.82493 3.84438 3.84935 4.27767ZM8.91349 7.38878H5.08673L5.41563 11.6666H8.58428L8.91349 7.38878ZM4.66685 6.61101H9.33346C9.6548 6.61101 9.87491 6.53174 10.0301 6.42464C10.1872 6.31622 10.3036 6.16121 10.3864 5.97027C10.5088 5.68777 10.5463 5.35056 10.5367 5.05545H3.45616C3.41351 5.68998 3.59928 6.05121 3.80556 6.25943C4.062 6.51829 4.41909 6.61096 4.66685 6.61101C4.66687 6.61101 4.66683 6.61101 4.66685 6.61101Z" fill="black"/>
<ellipse cx="5.79688" cy="1.96875" rx="0.765625" ry="0.65625" fill="black"/>
</g>
</svg>
